# xmcd
#
# Track frame offsets:
#	150
#	20406
#	39838
#	58452
#	71550
#	89080
#	105416
#	118076
#	145115
#	160265
#	177326
#	194598
#	220601
#	232398
#	254167
#	271374
#	291391
#	306772
#	325561
#	345457
#
# Disc length: 4837 seconds
#
# Revision: 9
# Processed by: cddbd v1.5.2PL0 Copyright (c) Steve Scherf et al.
# Submitted via: audiograbber 1.83.01
#
DISCID=3812e314
DTITLE=Various Artist - Rock Christmas Vol. 7
DYEAR=1998
DGENRE=Christmas Rock
TTITLE0=U2 - If God Will Send His Angels
TTITLE1=Elton John - Cold As Christmas (In The Middle Of The Year)
TTITLE2=3T - Endless Christmas
TTITLE3=Elvis Presley - If Everyday Was Like Christmas
TTITLE4=Gil - Christmas Time
TTITLE5=Hanson - What Christmas Means To Me
TTITLE6=Bryan Adams - Reggae Christmas
TTITLE7=Luther Vandross (Duet with Darlene Love) - I Listen To The Bells
TTITLE8=Culture Beat - Have Yourself A Merry Little Christmas
TTITLE9=SWV - Give Love On Christmas Day
TTITLE10=Brian McKnight - God Rest Ye Merry Gentleman
TTITLE11=Vanessa Williams - Go Tell It On The Mountain
TTITLE12=Bing Crosby and David Bowie - Little Drummer Boy
TTITLE13=2 Remarks - Why
TTITLE14=Amy Grant - The Night Before Christmas
TTITLE15=SWV - The Christmas Song (Chestnuts Roasting On An Open Fire)
TTITLE16=Trixx - Merry Christmas
TTITLE17=Loona - Another Christmas Without You
TTITLE18=Tony! Toni! Toné! - My Christmas
TTITLE19=Rap Allstars feat. Leroy Daniels - Last Christmas
EXTD=
EXTT0=
EXTT1=
EXTT2=
EXTT3=
EXTT4=
EXTT5=
EXTT6=
EXTT7=
EXTT8=
EXTT9=
EXTT10=
EXTT11=
EXTT12=
EXTT13=
EXTT14=
EXTT15=
EXTT16=
EXTT17=
EXTT18=
EXTT19=
PLAYORDER=
